# xmcd CD database file
#
# Track frame offsets:
#	150
#	21415
#	33360
#	49825
#	66065
#	76932
#	90337
#	109990
#	128457
#	142317
#	160180
#	178115
#
# Disc length: 2569 seconds
#
# Revision: 0
# Processed by: cddbd v1.5.1PL0 Copyright (c) Steve Scherf et al.
# Submitted via: CDex 1.51
#
DISCID=9c0a070c
DTITLE=Little Brother Montgomery - Tasty Blues
DYEAR=1960
DGENRE=Blues
TTITLE0=Taty Blues
TTITLE1=Santa Fe
TTITLE2=How Long, Brother?
TTITLE3=Pleading Blues
TTITLE4=No Special Rider
TTITLE5=Brother's Boogie
TTITLE6=Sneaky Pete Blues
TTITLE7=Something Keeps WorryingMe
TTITLE8=Cry, Cry Baby
TTITLE9=Satellite Blues
TTITLE10=Deep Fried
TTITLE11=Vicksburg Blues
EXTD=YEAR: 1960
EXTT0=
EXTT1=
EXTT2=
EXTT3=
EXTT4=
EXTT5=
EXTT6=
EXTT7=
EXTT8=
EXTT9=
EXTT10=
EXTT11=
PLAYORDER=
